<?xml version="1.0" encoding="UTF-8"?><svg id="Layer_1" xmlns="http://www.w3.org/2000/svg" viewBox="0 0 256 256"><defs><style>.cls-1{fill:#fff;}</style></defs><path class="cls-1" d="m110.54,127.48c0,10.37-78.29,108.28-85.91,108.28s-7-208.75.04-211.59,85.87,92.94,85.87,103.31Zm47.24-58.97C156.09,58.94,47.28-4.49,42.83.25c-4.45,4.75,76.03,101.02,84.02,101.02s32.63-23.2,30.93-32.76ZM43.73,255.53c3.69,6.8,109.66-62.95,111.35-70.71,1.68-7.77-16.14-31.78-23.68-31.78s-91.36,95.69-87.67,102.5Zm193.12-125.59c0-7.37-46.66-37.39-53.64-37.39s-35.55,29.74-35.55,37.39,28.8,37.39,35.54,37.39,53.65-30.02,53.65-37.39Z"/></svg>