<?xml version="1.0" encoding="UTF-8"?><svg id="Layer_1" xmlns="http://www.w3.org/2000/svg" viewBox="0 0 256 256"><defs><style>.cls-1{fill:#fff;}</style></defs><path class="cls-1" d="m24.67,89.74l13,37.25,7.83-8.21,6.02,9.97,7.83-34.21,22.06,12.1-16.42,59.58h-17.32l-3.41-11.88-6.98,11.94h-14.71L0,101.46l24.67-11.72Z"/><path class="cls-1" d="m111.96,89.74l13,37.25,7.83-8.21,6.02,9.97,7.83-34.21,22.06,12.1-16.42,59.58h-17.32l-3.41-11.88-6.98,11.94h-14.71l-22.6-64.8,24.67-11.72Z"/><path class="cls-1" d="m199.24,89.74l13,37.25,7.83-8.21,6.02,9.97,7.83-34.21,22.06,12.1-16.42,59.58h-17.32l-3.41-11.88-6.98,11.94h-14.71l-22.6-64.8,24.67-11.72Z"/><path class="cls-1" d="m86.22,77.93c-2.52-2.59,3.23-28.53,8.26-41.66,6.85-18.65,26.71-48.19,48.76-21.85,14.66,18.27,24.88,60.66,20.99,63.52-3.9,2.86-75.49,2.59-78.01,0Z"/><path class="cls-1" d="m159.89,10.2c2.19-1.85,32.33,5.17,50.15,23.43,18.42,18.87,23.37,43.24,21.96,44.9-2.26,2.67-42.09,2.88-45.41,0-3.32-2.88-2.67-18.64-8.74-35.78-5.64-15.93-20.15-30.71-17.95-32.56Z"/><path class="cls-1" d="m90.78,10.2c-2.19-1.85-32.33,5.17-50.15,23.43-18.42,18.87-23.37,43.24-21.96,44.9,2.26,2.67,42.09,2.88,45.41,0,3.32-2.88,2.67-18.64,8.74-35.78,5.64-15.93,20.15-30.71,17.95-32.56Z"/><path class="cls-1" d="m86.22,178.07c-2.52,2.59,3.23,28.53,8.26,41.66,6.85,18.65,26.71,48.19,48.76,21.85,14.66-18.27,24.88-60.66,20.99-63.52-3.9-2.86-75.49-2.59-78.01,0Z"/><path class="cls-1" d="m159.89,245.8c2.19,1.85,32.33-5.17,50.15-23.43,18.42-18.87,23.37-43.24,21.96-44.9-2.26-2.67-42.09-2.88-45.41,0-3.32,2.88-2.67,18.64-8.74,35.78-5.64,15.93-20.15,30.71-17.95,32.56Z"/><path class="cls-1" d="m90.78,245.8c-2.19,1.85-32.33-5.17-50.15-23.43-18.42-18.87-23.37-43.24-21.96-44.9,2.26-2.67,42.09-2.88,45.41,0,3.32,2.88,2.67,18.64,8.74,35.78,5.64,15.93,20.15,30.71,17.95,32.56Z"/><polygon class="cls-1" points="240.23 155.69 240.23 155.69 240.23 155.68 240.23 155.69"/></svg>