<?xml version="1.0" encoding="UTF-8"?><svg id="Layer_1" xmlns="http://www.w3.org/2000/svg" viewBox="0 0 256 256"><defs><style>.cls-1{fill:#fff;}</style></defs><path class="cls-1" d="m13.24,210.48c-3.24,5.67-4.93,9.22-4.59,9.91,2.86,5.7,20.56,23.14,29.73,21.76,2.23-.34,11.34-12.26,23.85-30.19-17.26.18-39.4.05-48.99-1.48Z"/><path class="cls-1" d="m249.24,166.06c-1.21-.93-16.2-2.26-38.22-3.63-15.05-22.91-33.04-49.5-49.96-73.82-7.61,11.13-19.54,26.09-27.02,35.28,7.09,11.09,14.41,22.42,21.63,33.47l36.1,53.83c12.78,18.36,22.12,30.61,24.38,30.95,9.17,1.38,26.87-16.06,29.73-21.76.49-.99-3.18-7.83-9.64-18.45,10.64-.58,17.25-1.38,17.94-2.44,4.43-6.73,0-29.62-4.94-33.44Z"/><path class="cls-1" d="m98.8,157.47c7.23-11.06,14.56-22.41,21.67-33.52,15.41-24.09,29.72-47.01,39.53-63.33,8.18-13.6,13.24-22.62,13.18-23.87-.29-6.23-14.8-22.75-22.85-22.97-1.87-.05-10.68,10.77-23.06,27.48-12.38-16.71-21.18-27.54-23.06-27.48-8.05.23-22.56,16.74-22.85,22.97-.08,1.65,8.69,16.73,21.8,38.03-18.11,25.71-38.5,55.65-55.7,81.68-24.77-.16-42.14.43-43.81,2.2-6.39,6.72-3.03,32.77,0,38.38.14.26.8.52,1.92.77,7.94,1.77,39.3,3.28,77.22,4.25,27.2.69,57.78,1.1,85.5,1.11-11.81-15.11-27.59-35.85-32.09-44.4-12.5-.49-25.14-.93-37.39-1.29Z"/></svg>