<?xml version="1.0" encoding="UTF-8"?><svg id="Layer_1" xmlns="http://www.w3.org/2000/svg" viewBox="0 0 256 256"><defs><style>.cls-1{fill:#fff;}</style></defs><path class="cls-1" d="m192.6,27.12c-39.88,0-57.12,24.17-60.64,45.67-2.72,16.64,4.59,31.28,4.59,34.42,0,7.19-36.31,51.14-41.07,50.37-2.95-.48-7.52-6.31-22.72-4.25-11.82,1.61-16.75,9.97-19.63,9.97-5.77,0-43.28-25.72-49-24.5-5.72,1.22-5.3,43.49,0,48.86,5.3,5.37,32.19,11.78,35.74,15.33,3.55,3.55,16.37,31.34,52.17,24.92,17.06-3.06,30.29-23.41,29.22-38.4-.56-7.78,47.27-42.83,52.93-42.83,2.83,0,22.84,7.12,41.3.92,18.46-6.21,35.39-25.74,39.87-57.6,6.14-43.62-33.14-62.88-62.76-62.88Zm9,88.97c-14.74,3.74-32.52-6.21-36.26-20.95-3.74-14.74,7.54-26.57,22.29-30.31,14.74-3.74,27.69,3.49,31.43,18.23,3.74,14.74-2.72,29.29-17.46,33.03Z"/></svg>